# xmcd
#
# Track frame offsets: 
#        150
#        22699
#        37098
#        54714
#        81001
#        108942
#        119501
#        136239
#
# Disc length: 2182 seconds
#
# Revision: 1
# Processed by: cddbd v1.5.2PL0 Copyright (c) Steve Scherf et al.
# Submitted via: ExactAudioCopy v1.0b3
#
DISCID=61088408
DTITLE=Fuzz - Fuzz
DYEAR=2013
DGENRE=Psychedelic
TTITLE0=Earthen Gate
TTITLE1=Sleigh Ride
TTITLE2=What's in my Head
TTITLE3=Hazemaze
TTITLE4=Loose Sutures
TTITLE5=Precher
TTITLE6=Raise
TTITLE7=One
EXTD=
EXTT0=
EXTT1=
EXTT2=
EXTT3=
EXTT4=
EXTT5=
EXTT6=
EXTT7=
PLAYORDER=
